<svg width="74" height="65" viewBox="0 0 74 65" fill="none" xmlns="http://www.w3.org/2000/svg">
<path d="M13.0442 0.0839844C8.77786 0.0979025 4.52514 0.0839844 0.258789 0.0839844C0.27242 7.53016 0.272425 14.9903 0.272425 22.4364C2.6305 22.7009 5.00221 22.5617 7.37391 22.6035C9.26855 22.5617 11.1632 22.673 13.0442 22.5199V0.0839844Z" fill="url(#paint0_linear_1439_2353)"/>
<path d="M55.7079 8.3799C53.377 4.455 49.3969 1.72706 45.0761 0.585772C43.9038 0.390919 42.7589 0.0847206 41.573 0.0986387C35.5211 0.0568844 29.4828 0.0847189 23.4445 0.0708008C23.4308 6.70973 23.4308 13.3487 23.4445 20.0015C23.5262 22.1588 22.2177 24.3161 20.214 25.0816C18.8646 25.694 17.3653 25.5827 15.9341 25.5827C10.6182 25.527 5.31589 25.5827 0.0136272 25.5548C0.0136272 38.6935 0.027261 51.8322 0 64.9709C4.19819 64.943 8.38276 64.9709 12.581 64.943C12.6082 56.2581 12.5537 47.5733 12.5946 38.8884C17.8696 38.4708 27.0974 35.6733 30.9549 31.7484C33.2448 29.3684 34.9895 26.4038 35.6847 23.1331C36.1481 19.8623 36.0527 16.5498 36.0799 13.2652C37.8383 13.3904 39.6102 12.8615 41.3413 13.3626C43.972 13.9054 45.962 16.5498 45.9484 19.2778C45.962 22.3815 45.962 25.4992 45.9484 28.6029C45.9212 31.5814 43.4949 34.184 40.6053 34.4485C39.2013 34.5181 37.8383 34.5042 36.4616 34.5042C34.0899 34.4902 31.7727 35.1444 29.7281 36.397C29.7009 36.4109 29.6736 36.4388 29.6327 36.4527C25.6799 38.8466 23.2536 43.203 23.3082 47.8934C23.3627 53.3493 23.4308 60.016 23.4172 64.9848C27.52 64.957 32.6587 65.0126 35.8346 64.9987C35.8482 59.2645 35.8755 53.5163 35.8482 47.7681C38.1245 47.6568 40.4281 47.9212 42.6907 47.5176C46.4936 47.1279 50.1466 45.3603 52.9136 42.6741C56.3076 39.2781 58.3931 34.5181 58.5975 29.6746C58.6248 26.0837 58.6111 22.4928 58.6111 18.902C58.6793 15.1858 57.5344 11.5393 55.7079 8.3799Z" fill="url(#paint1_linear_1439_2353)"/>
<path d="M74 0H61.4054C61.419 13.0273 61.4599 34.0297 61.4463 45.0946C61.5553 48.1566 59.4017 51.3578 56.2939 51.6918C53.9631 51.7892 48.7699 51.7753 44.708 51.7475V64.9001C48.8653 64.8861 54.2494 64.914 56.6892 64.8444C58.4067 64.6913 60.165 64.7609 61.8279 64.2181C64.6767 63.3134 67.3346 61.7128 69.3247 59.4442C72.4597 55.9646 73.8091 51.1629 73.9591 46.5143C74.0272 34.9901 73.9182 13.431 74 0Z" fill="url(#paint2_linear_1439_2353)"/>
<defs>
<linearGradient id="paint0_linear_1439_2353" x1="-8.74138" y1="8.48972" x2="431.511" y2="84.3328" gradientUnits="userSpaceOnUse">
<stop stop-color="#797979"/>
<stop offset="0.0227793" stop-color="#919191"/>
<stop offset="0.0655228" stop-color="#B8B8B8"/>
<stop offset="0.1078" stop-color="#D7D7D7"/>
<stop offset="0.1488" stop-color="#EDEDED"/>
<stop offset="0.1881" stop-color="#FAFAFA"/>
<stop offset="0.2238" stop-color="white"/>
<stop offset="0.2771" stop-color="#F9F9F9"/>
<stop offset="0.3457" stop-color="#E9E9E9"/>
<stop offset="0.4224" stop-color="#CFCFCF"/>
<stop offset="0.4539" stop-color="#C2C2C2"/>
<stop offset="0.5711" stop-color="#A3A3A3"/>
<stop offset="0.7651" stop-color="#E5E5E5"/>
<stop offset="0.8381" stop-color="white"/>
<stop offset="0.8641" stop-color="#F9F9F9"/>
<stop offset="0.8975" stop-color="#E9E9E9"/>
<stop offset="0.9351" stop-color="#CFCFCF"/>
<stop offset="0.9753" stop-color="#AAAAAA"/>
<stop offset="1" stop-color="#909090"/>
</linearGradient>
<linearGradient id="paint1_linear_1439_2353" x1="-11.8606" y1="26.5981" x2="428.392" y2="102.441" gradientUnits="userSpaceOnUse">
<stop stop-color="#797979"/>
<stop offset="0.0227793" stop-color="#919191"/>
<stop offset="0.0655228" stop-color="#B8B8B8"/>
<stop offset="0.1078" stop-color="#D7D7D7"/>
<stop offset="0.1488" stop-color="#EDEDED"/>
<stop offset="0.1881" stop-color="#FAFAFA"/>
<stop offset="0.2238" stop-color="white"/>
<stop offset="0.2771" stop-color="#F9F9F9"/>
<stop offset="0.3457" stop-color="#E9E9E9"/>
<stop offset="0.4224" stop-color="#CFCFCF"/>
<stop offset="0.4539" stop-color="#C2C2C2"/>
<stop offset="0.5711" stop-color="#A3A3A3"/>
<stop offset="0.7651" stop-color="#E5E5E5"/>
<stop offset="0.8381" stop-color="white"/>
<stop offset="0.8641" stop-color="#F9F9F9"/>
<stop offset="0.8975" stop-color="#E9E9E9"/>
<stop offset="0.9351" stop-color="#CFCFCF"/>
<stop offset="0.9753" stop-color="#AAAAAA"/>
<stop offset="1" stop-color="#909090"/>
</linearGradient>
<linearGradient id="paint2_linear_1439_2353" x1="-10.7023" y1="19.8728" x2="429.55" y2="95.7158" gradientUnits="userSpaceOnUse">
<stop stop-color="#797979"/>
<stop offset="0.0227793" stop-color="#919191"/>
<stop offset="0.0655228" stop-color="#B8B8B8"/>
<stop offset="0.1078" stop-color="#D7D7D7"/>
<stop offset="0.1488" stop-color="#EDEDED"/>
<stop offset="0.1881" stop-color="#FAFAFA"/>
<stop offset="0.2238" stop-color="white"/>
<stop offset="0.2771" stop-color="#F9F9F9"/>
<stop offset="0.3457" stop-color="#E9E9E9"/>
<stop offset="0.4224" stop-color="#CFCFCF"/>
<stop offset="0.4539" stop-color="#C2C2C2"/>
<stop offset="0.5711" stop-color="#A3A3A3"/>
<stop offset="0.7651" stop-color="#E5E5E5"/>
<stop offset="0.8381" stop-color="white"/>
<stop offset="0.8641" stop-color="#F9F9F9"/>
<stop offset="0.8975" stop-color="#E9E9E9"/>
<stop offset="0.9351" stop-color="#CFCFCF"/>
<stop offset="0.9753" stop-color="#AAAAAA"/>
<stop offset="1" stop-color="#909090"/>
</linearGradient>
</defs>
</svg>
