<svg width="32" height="32" viewBox="0 0 32 32" fill="none" xmlns="http://www.w3.org/2000/svg">
<path d="M28 22.0003C28 22.507 27.72 22.947 27.2933 23.1737L16.76 29.0937C16.5467 29.2537 16.28 29.3337 16 29.3337C15.72 29.3337 15.4533 29.2537 15.24 29.0937L4.70667 23.1737C4.49282 23.0614 4.31385 22.8927 4.18924 22.6858C4.06464 22.4789 3.99919 22.2418 4.00001 22.0003V10.0003C4.00001 9.49366 4.28001 9.05366 4.70667 8.82699L15.24 2.90699C15.4533 2.74699 15.72 2.66699 16 2.66699C16.28 2.66699 16.5467 2.74699 16.76 2.90699L27.2933 8.82699C27.72 9.05366 28 9.49366 28 10.0003V22.0003ZM6.66667 12.0003V20.0003H8.33334V17.3337H9.33334C10.0406 17.3337 10.7189 17.0527 11.219 16.5526C11.7191 16.0525 12 15.3742 12 14.667C12 13.9597 11.7191 13.2815 11.219 12.7814C10.7189 12.2813 10.0406 12.0003 9.33334 12.0003H6.66667ZM8.33334 16.0003V13.3337H9.00001C9.35363 13.3337 9.69277 13.4741 9.94282 13.7242C10.1929 13.9742 10.3333 14.3134 10.3333 14.667C10.3333 15.0206 10.1929 15.3598 9.94282 15.6098C9.69277 15.8598 9.35363 16.0003 9.00001 16.0003H8.33334ZM13 12.0003V20.0003H14.6667V17.3337H15.6667L16.5467 20.0003H18.3067L17.2533 16.8137C17.9067 16.3337 18.3333 15.547 18.3333 14.667C18.3333 13.9597 18.0524 13.2815 17.5523 12.7814C17.0522 12.2813 16.3739 12.0003 15.6667 12.0003H13ZM14.6667 16.0003V13.3337H15.3333C15.687 13.3337 16.0261 13.4741 16.2761 13.7242C16.5262 13.9742 16.6667 14.3134 16.6667 14.667C16.6667 15.0206 16.5262 15.3598 16.2761 15.6098C16.0261 15.8598 15.687 16.0003 15.3333 16.0003H14.6667ZM22.6667 12.0003C20.8267 12.0003 19.3333 13.787 19.3333 16.0003C19.3333 18.2137 20.8267 20.0003 22.6667 20.0003C24.5067 20.0003 26 18.2137 26 16.0003C26 13.787 24.5067 12.0003 22.6667 12.0003ZM22.6667 13.667C23.68 13.667 24.5067 14.707 24.5067 16.0003C24.5067 17.2937 23.68 18.3337 22.6667 18.3337C21.6533 18.3337 20.84 17.2937 20.84 16.0003C20.84 14.707 21.6533 13.667 22.6667 13.667Z" fill="white"/>
</svg>
